<svg width="25" height="25" viewBox="0 0 25 25" fill="none" xmlns="http://www.w3.org/2000/svg">
<g opacity="0.8">
<path d="M17.3796 6.4434C17.1422 6.4434 16.9102 6.51378 16.7129 6.64564C16.5155 6.77749 16.3617 6.96491 16.2709 7.18418C16.1801 7.40345 16.1563 7.64473 16.2026 7.87751C16.2489 8.11028 16.3632 8.3241 16.531 8.49193C16.6988 8.65975 16.9127 8.77404 17.1454 8.82034C17.3782 8.86664 17.6195 8.84288 17.8388 8.75205C18.058 8.66123 18.2455 8.50742 18.3773 8.31008C18.5092 8.11274 18.5796 7.88074 18.5796 7.6434C18.5796 7.32514 18.4531 7.01991 18.2281 6.79487C18.003 6.56983 17.6978 6.4434 17.3796 6.4434ZM21.9796 8.8634C21.9601 8.0337 21.8047 7.2128 21.5196 6.4334C21.2653 5.76653 20.8695 5.16268 20.3596 4.6634C19.8644 4.15082 19.2591 3.75757 18.5896 3.5134C17.8122 3.21956 16.9904 3.06061 16.1596 3.0434C15.0996 2.9834 14.7596 2.9834 12.0396 2.9834C9.31955 2.9834 8.97955 2.9834 7.91955 3.0434C7.0887 3.06061 6.26689 3.21956 5.48955 3.5134C4.82123 3.76005 4.21648 4.15296 3.71955 4.6634C3.20698 5.15858 2.81373 5.76384 2.56955 6.4334C2.27571 7.21074 2.11676 8.03255 2.09955 8.8634C2.03955 9.9234 2.03955 10.2634 2.03955 12.9834C2.03955 15.7034 2.03955 16.0434 2.09955 17.1034C2.11676 17.9342 2.27571 18.7561 2.56955 19.5334C2.81373 20.203 3.20698 20.8082 3.71955 21.3034C4.21648 21.8138 4.82123 22.2067 5.48955 22.4534C6.26689 22.7472 7.0887 22.9062 7.91955 22.9234C8.97955 22.9834 9.31955 22.9834 12.0396 22.9834C14.7596 22.9834 15.0996 22.9834 16.1596 22.9234C16.9904 22.9062 17.8122 22.7472 18.5896 22.4534C19.2591 22.2092 19.8644 21.816 20.3596 21.3034C20.8718 20.806 21.2679 20.2016 21.5196 19.5334C21.8047 18.754 21.9601 17.9331 21.9796 17.1034C21.9796 16.0434 22.0396 15.7034 22.0396 12.9834C22.0396 10.2634 22.0396 9.9234 21.9796 8.8634ZM20.1796 16.9834C20.1723 17.6182 20.0573 18.2471 19.8396 18.8434C19.6799 19.2786 19.4234 19.6718 19.0896 19.9934C18.7652 20.3239 18.3728 20.5798 17.9396 20.7434C17.3433 20.9612 16.7143 21.0761 16.0796 21.0834C15.0796 21.1334 14.7096 21.1434 12.0796 21.1434C9.44955 21.1434 9.07955 21.1434 8.07955 21.0834C7.42044 21.0957 6.76415 20.9942 6.13955 20.7834C5.72533 20.6115 5.35091 20.3562 5.03955 20.0334C4.70764 19.7121 4.45439 19.3186 4.29955 18.8834C4.05541 18.2786 3.91999 17.6353 3.89955 16.9834C3.89955 15.9834 3.83955 15.6134 3.83955 12.9834C3.83955 10.3534 3.83955 9.9834 3.89955 8.9834C3.90403 8.33445 4.0225 7.69134 4.24955 7.0834C4.4256 6.66131 4.69582 6.28506 5.03955 5.9834C5.34336 5.63957 5.71884 5.36649 6.13955 5.1834C6.7491 4.96344 7.39155 4.84848 8.03955 4.8434C9.03955 4.8434 9.40955 4.7834 12.0396 4.7834C14.6696 4.7834 15.0396 4.7834 16.0396 4.8434C16.6743 4.85068 17.3033 4.96564 17.8996 5.1834C18.354 5.35205 18.7618 5.62625 19.0896 5.9834C19.4173 6.29058 19.6733 6.66613 19.8396 7.0834C20.0618 7.69233 20.1768 8.33518 20.1796 8.9834C20.2295 9.9834 20.2396 10.3534 20.2396 12.9834C20.2396 15.6134 20.2295 15.9834 20.1796 16.9834ZM12.0396 7.8534C11.0254 7.85538 10.0345 8.15792 9.19221 8.72282C8.3499 9.28771 7.69393 10.0896 7.30718 11.0272C6.92044 11.9647 6.82027 12.9959 7.01934 13.9903C7.21841 14.9848 7.70779 15.8979 8.42563 16.6144C9.14347 17.3308 10.0576 17.8184 11.0524 18.0155C12.0473 18.2127 13.0782 18.1105 14.015 17.7219C14.9518 17.3334 15.7524 16.6758 16.3157 15.8324C16.8789 14.989 17.1795 13.9976 17.1796 12.9834C17.1809 12.3085 17.0488 11.64 16.7908 11.0164C16.5328 10.3927 16.1541 9.82621 15.6764 9.34945C15.1987 8.87269 14.6315 8.49508 14.0073 8.23833C13.3832 7.98158 12.7144 7.85076 12.0396 7.8534ZM12.0396 16.3134C11.3809 16.3134 10.7371 16.1181 10.1895 15.7522C9.64189 15.3863 9.21507 14.8662 8.96303 14.2577C8.71099 13.6493 8.64505 12.9797 8.77354 12.3337C8.90202 11.6878 9.21918 11.0944 9.68489 10.6287C10.1506 10.163 10.7439 9.84587 11.3899 9.71738C12.0359 9.58889 12.7054 9.65484 13.3139 9.90688C13.9224 10.1589 14.4424 10.5857 14.8083 11.1333C15.1742 11.681 15.3696 12.3248 15.3696 12.9834C15.3696 13.4207 15.2834 13.8537 15.1161 14.2577C14.9487 14.6617 14.7034 15.0288 14.3942 15.3381C14.085 15.6473 13.7179 15.8926 13.3139 16.0599C12.9099 16.2273 12.4769 16.3134 12.0396 16.3134Z" fill="white"/>
</g>
</svg>
