<svg width="25" height="25" viewBox="0 0 25 25" fill="none" xmlns="http://www.w3.org/2000/svg">
<g opacity="0.8">
<path d="M12.0396 2.9834C10.0617 2.9834 8.12834 3.56989 6.48385 4.6687C4.83936 5.76752 3.55764 7.3293 2.80076 9.15656C2.04388 10.9838 1.84585 12.9945 2.2317 14.9343C2.61755 16.8741 3.56996 18.6559 4.96849 20.0545C6.36701 21.453 8.14884 22.4054 10.0887 22.7913C12.0285 23.1771 14.0391 22.9791 15.8664 22.2222C17.6937 21.4653 19.2554 20.1836 20.3542 18.5391C21.4531 16.8946 22.0396 14.9612 22.0396 12.9834C22.0396 11.6702 21.7809 10.3698 21.2784 9.15656C20.7758 7.94331 20.0392 6.84092 19.1106 5.91233C18.182 4.98374 17.0796 4.24715 15.8664 3.7446C14.6531 3.24206 13.3528 2.9834 12.0396 2.9834ZM12.0396 4.9834C14.0943 4.98258 16.0693 5.77833 17.5496 7.2034C16.0216 8.0996 14.4024 8.83039 12.7196 9.3834C11.882 7.94022 10.9218 6.57184 9.84956 5.2934C10.5615 5.0884 11.2987 4.98405 12.0396 4.9834ZM7.92955 6.1334C8.97724 7.3319 9.91752 8.6202 10.7396 9.9834C8.77666 10.4708 6.76206 10.7193 4.73956 10.7234H4.37956C4.94676 8.80304 6.21349 7.16521 7.92955 6.1334ZM6.03956 18.2934C4.73831 16.8322 4.02563 14.94 4.03956 12.9834C4.03956 12.8834 4.03956 12.7834 4.03956 12.6934H4.71956C7.08693 12.6722 9.44095 12.3359 11.7196 11.6934C12.0396 12.3034 12.3396 12.9334 12.6296 13.5834C11.071 14.1328 9.61956 14.9482 8.33956 15.9934L8.03956 16.2334C7.32667 16.8736 6.65844 17.5619 6.03956 18.2934ZM12.0396 20.9834C10.4456 20.9869 8.88775 20.5095 7.56956 19.6134C8.0564 19.055 8.5774 18.5273 9.12956 18.0334L9.44955 17.7634C10.6327 16.7683 11.9885 15.9989 13.4496 15.4934C14.0509 17.1194 14.5191 18.7916 14.8496 20.4934C13.9494 20.8221 12.9979 20.988 12.0396 20.9834ZM16.6696 19.4934C16.3424 17.98 15.9148 16.49 15.3896 15.0334H15.7296C15.769 15.0237 15.8101 15.0237 15.8496 15.0334H15.9596H16.0596H16.5396C17.5919 15.0364 18.6363 15.2156 19.6296 15.5634C19.0839 17.1538 18.0474 18.5298 16.6696 19.4934ZM16.5396 12.9834C16.3296 12.9834 16.1196 12.9834 15.9196 12.9834C15.7901 12.9671 15.659 12.9671 15.5296 12.9834C15.2578 13.0001 14.9873 13.0335 14.7196 13.0834H14.6196C14.3296 12.4134 14.0296 11.7634 13.6996 11.0834C15.4902 10.4685 17.2099 9.66389 18.8296 8.6834C19.633 9.97277 20.0527 11.4643 20.0396 12.9834C20.0396 13.1534 20.0396 13.3234 20.0396 13.4934C18.9062 13.1436 17.7256 12.9716 16.5396 12.9834Z" fill="white"/>
</g>
</svg>
