<svg width="25" height="25" viewBox="0 0 25 25" fill="none" xmlns="http://www.w3.org/2000/svg">
<path d="M20.5096 2.98354H3.56961C3.37919 2.98089 3.19011 3.01579 3.01318 3.08622C2.83624 3.15666 2.67491 3.26126 2.53841 3.39405C2.4019 3.52684 2.29289 3.68522 2.2176 3.86015C2.14231 4.03507 2.10222 4.22312 2.09961 4.41354V21.5535C2.10222 21.744 2.14231 21.932 2.2176 22.1069C2.29289 22.2819 2.4019 22.4402 2.53841 22.573C2.67491 22.7058 2.83624 22.8104 3.01318 22.8809C3.19011 22.9513 3.37919 22.9862 3.56961 22.9835H20.5096C20.7 22.9862 20.8891 22.9513 21.066 22.8809C21.243 22.8104 21.4043 22.7058 21.5408 22.573C21.6773 22.4402 21.7863 22.2819 21.8616 22.1069C21.9369 21.932 21.977 21.744 21.9796 21.5535V4.41354C21.977 4.22312 21.9369 4.03507 21.8616 3.86015C21.7863 3.68522 21.6773 3.52684 21.5408 3.39405C21.4043 3.26126 21.243 3.15666 21.066 3.08622C20.8891 3.01579 20.7 2.98089 20.5096 2.98354ZM8.12961 19.7235H5.12961V10.7235H8.12961V19.7235ZM6.62961 9.46354C6.21587 9.46354 5.81908 9.29918 5.52652 9.00662C5.23397 8.71407 5.06961 8.31728 5.06961 7.90354C5.06961 7.4898 5.23397 7.09301 5.52652 6.80045C5.81908 6.50789 6.21587 6.34354 6.62961 6.34354C6.84931 6.31862 7.07179 6.34039 7.28248 6.40742C7.49318 6.47445 7.68735 6.58523 7.85227 6.7325C8.01718 6.87977 8.14914 7.06022 8.23948 7.26202C8.32983 7.46382 8.37653 7.68243 8.37653 7.90354C8.37653 8.12464 8.32983 8.34325 8.23948 8.54506C8.14914 8.74686 8.01718 8.92731 7.85227 9.07458C7.68735 9.22185 7.49318 9.33263 7.28248 9.39965C7.07179 9.46668 6.84931 9.48845 6.62961 9.46354ZM18.9496 19.7235H15.9496V14.8935C15.9496 13.6835 15.5196 12.8935 14.4296 12.8935C14.0923 12.896 13.7638 13.0018 13.4884 13.1967C13.2131 13.3916 13.0041 13.6662 12.8896 13.9835C12.8114 14.2186 12.7774 14.4661 12.7896 14.7135V19.7135H9.78961C9.78961 19.7135 9.78961 11.5335 9.78961 10.7135H12.7896V11.9835C13.0621 11.5106 13.4585 11.1211 13.9361 10.8567C14.4136 10.5924 14.9542 10.4634 15.4996 10.4835C17.4996 10.4835 18.9496 11.7735 18.9496 14.5435V19.7235Z" fill="white"/>
</svg>
