<svg width="25" height="25" viewBox="0 0 25 25" fill="none" xmlns="http://www.w3.org/2000/svg">
<g opacity="0.8">
<path d="M20.1096 7.33344H15.0396V8.74344H20.1296L20.1096 7.33344ZM19.0396 17.0334C18.6549 17.2883 18.2007 17.4176 17.7396 17.4034C17.4343 17.4353 17.1257 17.4037 16.8332 17.3108C16.5407 17.2179 16.2705 17.0656 16.0396 16.8634C15.6126 16.3793 15.3903 15.7483 15.4196 15.1034H22.0396C22.0873 14.432 22.0299 13.7572 21.8696 13.1034C21.7144 12.4815 21.443 11.8945 21.0696 11.3734C20.6937 10.868 20.2082 10.4544 19.6496 10.1634C19.028 9.85698 18.3425 9.70273 17.6496 9.71343C16.9979 9.70866 16.3518 9.83447 15.7496 10.0834C15.1981 10.3159 14.6983 10.6559 14.2796 11.0834C13.8619 11.5196 13.5386 12.037 13.3296 12.6034C13.1053 13.215 12.9935 13.8621 12.9996 14.5134C12.9893 15.174 13.0976 15.8311 13.3196 16.4534C13.508 17.017 13.8072 17.5372 14.1996 17.9834C14.6055 18.4216 15.1043 18.7633 15.6596 18.9834C16.2787 19.2193 16.9371 19.3347 17.5996 19.3234C18.529 19.3524 19.4466 19.1091 20.2396 18.6234C21.0405 18.0543 21.6171 17.223 21.8696 16.2734H19.6596C19.5412 16.5876 19.3235 16.8544 19.0396 17.0334ZM15.6096 12.9134C15.6874 12.6641 15.8166 12.4339 15.9888 12.2375C16.161 12.0412 16.3725 11.8831 16.6096 11.7734C16.9235 11.6321 17.2654 11.5637 17.6096 11.5734C17.8582 11.5522 18.1084 11.585 18.3432 11.6696C18.5779 11.7542 18.7916 11.8885 18.9696 12.0634C19.3093 12.4794 19.5274 12.9812 19.5996 13.5134H15.4496C15.4657 13.3102 15.5026 13.1092 15.5596 12.9134H15.6096ZM10.3196 12.4334C10.8285 12.2215 11.2708 11.876 11.5996 11.4334C11.9018 10.9634 12.0519 10.4118 12.0296 9.85344C12.0492 9.34427 11.9499 8.83755 11.7396 8.37344C11.5629 7.97135 11.2792 7.62546 10.9196 7.37344C10.5382 7.11141 10.1052 6.9341 9.64955 6.85344C9.11037 6.74035 8.56042 6.6867 8.00955 6.69344H2.03955V19.2734H8.13955C8.69624 19.2738 9.25071 19.2033 9.78955 19.0634C10.3003 18.9313 10.7842 18.7114 11.2196 18.4134C11.6413 18.1211 11.9847 17.7297 12.2196 17.2734C12.4795 16.7632 12.6067 16.1958 12.5896 15.6234C12.6085 14.9142 12.4096 14.2162 12.0196 13.6234C11.6001 13.0274 10.9781 12.6044 10.2696 12.4334H10.3196ZM4.80955 8.84344H7.39955C7.6375 8.84314 7.87503 8.86322 8.10955 8.90344C8.3255 8.93544 8.53289 9.01023 8.71955 9.12344C8.8999 9.22545 9.04603 9.37854 9.13955 9.56344C9.25537 9.78515 9.31057 10.0335 9.29955 10.2834C9.31818 10.4987 9.28527 10.7153 9.20354 10.9152C9.1218 11.1152 8.9936 11.2929 8.82955 11.4334C8.47167 11.6795 8.04343 11.8023 7.60955 11.7834H4.80955V8.84344ZM9.64955 16.2834C9.54681 16.4872 9.39145 16.6599 9.19955 16.7834C8.99986 16.9076 8.77982 16.9957 8.54955 17.0434C8.29361 17.1007 8.03179 17.1276 7.76955 17.1234H4.76955V13.6734H7.76955C8.28437 13.6509 8.79277 13.7946 9.21955 14.0834C9.41236 14.2565 9.56172 14.4725 9.65554 14.714C9.74935 14.9554 9.78498 15.2156 9.75955 15.4734C9.78659 15.7483 9.74892 16.0257 9.64955 16.2834Z" fill="white"/>
</g>
</svg>
