<svg width="12" height="13" viewBox="0 0 12 13" fill="none" xmlns="http://www.w3.org/2000/svg">
<path opacity="0.5" fill-rule="evenodd" clip-rule="evenodd" d="M3.95053 0.0496241C3.71994 0.150516 3.72555 0.123344 3.70638 1.2307C3.68945 2.20927 3.68825 2.22408 3.60564 2.47231C3.39554 3.10374 3.03347 3.69927 1.95968 5.17953C1.24014 6.17147 1.019 6.4985 0.716595 7.01781C0.421982 7.52375 0.271792 7.84778 0.148719 8.24289C0.0586543 8.53211 -0.0253983 9.05745 0.00714907 9.12769C0.0524577 9.22543 1.82968 9.14026 2.95662 8.98634C5.20055 8.67988 7.67676 7.93321 9.81555 6.91814C10.1322 6.76788 10.8056 6.4148 10.8815 6.35923C10.895 6.34933 10.7526 6.14615 10.0728 5.20493C8.96856 3.67608 8.63597 3.13058 8.41022 2.47807C8.33178 2.25135 8.32973 2.2256 8.31218 1.25609C8.29534 0.325662 8.29055 0.26055 8.23291 0.180761C8.19917 0.134035 8.12033 0.0740282 8.05775 0.0474402C7.94928 0.00132382 7.85281 -0.000885502 6.00245 0.000181065C4.15459 0.00124763 4.05563 0.00363471 3.95053 0.0496241ZM11.0398 7.19131C9.96501 7.80753 8.3424 8.48206 6.87108 8.92425C4.88664 9.52062 3.0039 9.83363 0.962679 9.90646C0.524011 9.92213 0.159425 9.93909 0.152492 9.94417C0.14559 9.94922 0.177309 10.0473 0.222986 10.1621C0.412196 10.6375 0.793285 11.1767 1.27824 11.6551C1.70848 12.0795 2.41108 12.6111 2.92595 12.9017L3.07933 12.9883L5.97086 12.9951C9.3036 13.0028 8.88116 13.0386 9.41854 12.7031C9.79387 12.4688 10.538 11.8769 10.816 11.5916C11.2364 11.1601 11.5907 10.6541 11.7727 10.2251C11.9365 9.83906 11.9997 9.53042 12 9.11568C12.0002 8.69299 11.9438 8.41852 11.7597 7.94753C11.6489 7.66398 11.3652 7.08653 11.3219 7.05662C11.3102 7.04847 11.1832 7.10908 11.0398 7.19131Z" fill="white"/>
</svg>
