<svg width="37" height="37" viewBox="0 0 37 37" fill="none" xmlns="http://www.w3.org/2000/svg">
<path fill-rule="evenodd" clip-rule="evenodd" d="M9.51013 18.5037C9.51013 14.9085 9.51013 13.111 10.3668 11.8162C10.7494 11.2381 11.2445 10.7429 11.8227 10.3604C13.1174 9.50366 14.915 9.50366 18.5101 9.50366C22.1053 9.50366 23.9028 9.50366 25.1976 10.3604C25.7757 10.7429 26.2709 11.2381 26.6534 11.8162C27.5101 13.111 27.5101 14.9085 27.5101 18.5037C27.5101 22.0988 27.5101 23.8964 26.6534 25.1911C26.2709 25.7693 25.7757 26.2644 25.1976 26.647C23.9028 27.5037 22.1053 27.5037 18.5101 27.5037C14.915 27.5037 13.1174 27.5037 11.8227 26.647C11.2445 26.2644 10.7494 25.7693 10.3668 25.1911C9.51013 23.8964 9.51013 22.0988 9.51013 18.5037ZM23.1694 18.5039C23.1694 21.0772 21.0833 23.1633 18.51 23.1633C15.9367 23.1633 13.8506 21.0772 13.8506 18.5039C13.8506 15.9306 15.9367 13.8445 18.51 13.8445C21.0833 13.8445 23.1694 15.9306 23.1694 18.5039ZM18.51 21.5869C20.2127 21.5869 21.593 20.2066 21.593 18.5039C21.593 16.8012 20.2127 15.4209 18.51 15.4209C16.8073 15.4209 15.427 16.8012 15.427 18.5039C15.427 20.2066 16.8073 21.5869 18.51 21.5869ZM23.3534 14.7052C23.9581 14.7052 24.4482 14.215 24.4482 13.6104C24.4482 13.0057 23.9581 12.5156 23.3534 12.5156C22.7488 12.5156 22.2586 13.0057 22.2586 13.6104C22.2586 14.215 22.7488 14.7052 23.3534 14.7052Z" fill="white"/>
</svg>
