<svg width="37" height="37" viewBox="0 0 37 37" fill="none" xmlns="http://www.w3.org/2000/svg">
<path d="M9.51013 11.9236C9.51013 11.3464 9.71284 10.8702 10.1182 10.495C10.5236 10.1198 11.0507 9.93225 11.6993 9.93225C12.3364 9.93225 12.8518 10.1169 13.2457 10.4864C13.6511 10.8673 13.8538 11.3637 13.8538 11.9755C13.8538 12.5297 13.6569 12.9914 13.263 13.3608C12.8576 13.7418 12.3248 13.9322 11.6646 13.9322H11.6472C11.0101 13.9322 10.4947 13.7418 10.1009 13.3608C9.70704 12.9799 9.51013 12.5008 9.51013 11.9236ZM9.736 27.0751V15.508H13.5931V27.0751H9.736ZM15.7302 27.0751H19.5874V20.6162C19.5874 20.2122 19.6337 19.9005 19.7263 19.6812C19.8885 19.2887 20.1346 18.9568 20.4648 18.6855C20.7949 18.4142 21.209 18.2786 21.707 18.2786C23.0043 18.2786 23.653 19.1501 23.653 20.8933V27.0751H27.5101V20.4431C27.5101 18.7346 27.1047 17.4387 26.2939 16.5556C25.4831 15.6725 24.4117 15.231 23.0796 15.231C21.5854 15.231 20.4213 15.8716 19.5874 17.153V17.1877H19.57L19.5874 17.153V15.508H15.7302C15.7534 15.8774 15.765 17.026 15.765 18.9539C15.765 20.8817 15.7534 23.5888 15.7302 27.0751Z" fill="white"/>
</svg>
