<svg width="67" height="67" viewBox="0 0 67 67" fill="none" xmlns="http://www.w3.org/2000/svg">
<rect y="67" width="67" height="67" transform="rotate(-90 0 67)" fill="white"/>
<path d="M30.3108 38.8604L20.7298 57.1969H18.7546L9.38 38.8604H14.6864L19.8749 49.5616L24.7686 38.8604H30.3108Z" fill="#1D2228"/>
<path d="M27.4512 27.6575H22.8524V20.0222H13.9494V27.6575H9.38V9.37988H13.9494V15.836H22.8818V9.37988H27.4512V27.6575Z" fill="#1D2228"/>
<path d="M57.5434 57.6207H53.0035V48.5704L53.1509 46.8016L47.6381 51.6068L42.0074 46.8016C42.0861 47.5484 42.1254 48.1675 42.1254 48.6588V57.6207H37.5854V39.2842H39.649L45.7809 44.5611L47.5497 46.1825C48.2965 45.475 48.8861 44.9345 49.3185 44.5611L55.4798 39.2842H57.5434V57.6207Z" fill="#1D2228"/>
</svg>
