<svg width="40" height="40" viewBox="0 0 40 40" fill="none" xmlns="http://www.w3.org/2000/svg">
<g clip-path="url(#clip0_901_1262)">
<g opacity="0.75" filter="url(#filter0_f_901_1262)">
<path fill-rule="evenodd" clip-rule="evenodd" d="M31.7842 13.1365C29.7351 13.7786 28.1763 15.3401 27.536 17.3935C27.436 17.7133 26.9977 17.7133 26.8977 17.3935C26.2574 15.3401 24.6986 13.7786 22.6495 13.1365C22.3304 13.0363 22.3304 12.597 22.6495 12.4968C24.6986 11.8553 26.2574 10.2937 26.8977 8.23987C26.9977 7.92004 27.436 7.92004 27.536 8.23987C28.1763 10.2937 29.7351 11.8553 31.7842 12.4968C32.1033 12.597 32.1033 13.0363 31.7842 13.1365" fill="#FFE336"/>
</g>
<path fill-rule="evenodd" clip-rule="evenodd" d="M31.7275 13.1365C29.6784 13.7786 28.1196 15.3401 27.4794 17.3935C27.3794 17.7133 26.941 17.7133 26.841 17.3935C26.2008 15.3401 24.642 13.7786 22.5929 13.1365C22.2737 13.0363 22.2737 12.597 22.5929 12.4968C24.642 11.8553 26.2008 10.2937 26.841 8.23987C26.941 7.92004 27.3794 7.92004 27.4794 8.23987C28.1196 10.2937 29.6784 11.8553 31.7275 12.4968C32.0467 12.597 32.0467 13.0363 31.7275 13.1365" fill="#FFE336"/>
<path fill-rule="evenodd" clip-rule="evenodd" d="M19.7724 31.8867C13.4112 31.8867 8.23633 26.7005 8.23633 20.3266C8.23633 14.919 11.9067 10.2882 17.1619 9.06527C18.1972 8.82685 19.2297 9.46987 19.47 10.5064C19.7099 11.543 19.0663 12.5781 18.0319 12.8189C14.584 13.6214 12.0817 16.7787 12.0817 20.3266C12.0817 24.5759 15.5319 28.0333 19.7724 28.0333C23.463 28.0333 26.6411 25.3981 27.3285 21.7673C27.5261 20.7221 28.5316 20.0348 29.5761 20.2342C30.6192 20.4321 31.3046 21.4407 31.1066 22.486C30.0746 27.9331 25.3082 31.8867 19.7724 31.8867" fill="white"/>
</g>
<defs>
<filter id="filter0_f_901_1262" x="12.9984" y="-1.41177" width="28.4368" height="28.4573" filterUnits="userSpaceOnUse" color-interpolation-filters="sRGB">
<feFlood flood-opacity="0" result="BackgroundImageFix"/>
<feBlend mode="normal" in="SourceGraphic" in2="BackgroundImageFix" result="shape"/>
<feGaussianBlur stdDeviation="4.70588" result="effect1_foregroundBlur_901_1262"/>
</filter>
<clipPath id="clip0_901_1262">
<rect width="40" height="40" rx="20" fill="white"/>
</clipPath>
</defs>
</svg>
