<svg width="37" height="37" viewBox="0 0 37 37" fill="none" xmlns="http://www.w3.org/2000/svg">
<path d="M21.5372 11.205V11.2018H22.3812L22.6896 11.2634C22.8952 11.3034 23.0818 11.3558 23.2495 11.4206C23.4173 11.4854 23.5796 11.5611 23.7365 11.6475C23.8934 11.734 24.0357 11.822 24.1633 11.9117C24.2899 12.0003 24.4036 12.0943 24.5042 12.1937C24.6037 12.2942 24.759 12.3202 24.97 12.2715C25.181 12.2229 25.4082 12.1554 25.6517 12.0689C25.8952 11.9825 26.1359 11.8852 26.374 11.7772C26.612 11.6691 26.757 11.6005 26.809 11.5713C26.8598 11.5411 26.8869 11.5249 26.8901 11.5227L26.8934 11.5178L26.9096 11.5097L26.9258 11.5016L26.9421 11.4935L26.9583 11.4854L26.9615 11.4806L26.9664 11.4773L26.9713 11.4741L26.9745 11.4692L26.9907 11.4644L27.007 11.4611L27.0037 11.4854L26.9989 11.5097L26.9907 11.5341L26.9826 11.5584L26.9745 11.5746L26.9664 11.5908L26.9583 11.6151C26.9529 11.6313 26.9475 11.6529 26.9421 11.6799C26.9366 11.7069 26.8852 11.815 26.7879 12.0041C26.6905 12.1932 26.5687 12.385 26.4227 12.5795C26.2766 12.774 26.1457 12.9209 26.0299 13.0204C25.913 13.1209 25.8357 13.1911 25.7978 13.2311C25.7599 13.2721 25.7139 13.3099 25.6598 13.3445L25.5787 13.398L25.5624 13.4061L25.5462 13.4142L25.543 13.4191L25.5381 13.4223L25.5332 13.4256L25.53 13.4304L25.5137 13.4385L25.4975 13.4466L25.4943 13.4515L25.4894 13.4548L25.4845 13.458L25.4813 13.4629L25.478 13.4677L25.4732 13.471L25.4683 13.4742L25.465 13.4791H25.5462L26.0007 13.3818C26.3036 13.317 26.5931 13.2386 26.869 13.1468L27.3072 13.0009L27.3559 12.9847L27.3803 12.9766L27.3965 12.9685L27.4127 12.9604L27.429 12.9523L27.4452 12.9442L27.4777 12.9393L27.5101 12.9361V12.9685L27.502 12.9717L27.4939 12.9766L27.4907 12.9815L27.4858 12.9847L27.4809 12.9879L27.4777 12.9928L27.4744 12.9977L27.4696 13.0009L27.4647 13.0042L27.4614 13.009L27.4582 13.0139L27.4533 13.0171L27.4452 13.0333L27.4371 13.0495L27.4322 13.0528C27.4301 13.056 27.3614 13.1479 27.2261 13.3283C27.0908 13.5099 27.0178 13.6017 27.007 13.6039C26.9962 13.6071 26.981 13.6233 26.9615 13.6525C26.9431 13.6827 26.8284 13.8032 26.6174 14.0139C26.4064 14.2247 26.1998 14.4121 25.9974 14.5764C25.794 14.7417 25.6912 14.9448 25.689 15.1858C25.6858 15.4257 25.6734 15.6969 25.6517 15.9995C25.6301 16.302 25.5895 16.6289 25.53 16.9801C25.4705 17.3313 25.3785 17.7284 25.254 18.1714C25.1296 18.6144 24.9781 19.0467 24.7996 19.4681C24.621 19.8895 24.4344 20.2677 24.2396 20.6027C24.0448 20.9376 23.8663 21.2213 23.704 21.4536C23.5417 21.6859 23.3767 21.9047 23.209 22.11C23.0412 22.3154 22.8292 22.5466 22.5727 22.8038C22.3152 23.0599 22.1745 23.2003 22.1507 23.2252C22.1258 23.249 22.0198 23.3376 21.8326 23.491C21.6465 23.6455 21.4463 23.8 21.232 23.9546C21.0189 24.108 20.823 24.236 20.6445 24.3387C20.4659 24.4413 20.2506 24.5586 19.9985 24.6904C19.7475 24.8233 19.4759 24.9465 19.1837 25.06C18.8916 25.1734 18.5832 25.2788 18.2586 25.376C17.9339 25.4733 17.6201 25.5489 17.3172 25.603C17.0142 25.657 16.6706 25.7029 16.2865 25.7407L15.7103 25.7975V25.8056H14.6553V25.7975L14.5173 25.7893C14.4254 25.784 14.3496 25.7785 14.2901 25.7731C14.2306 25.7677 14.0061 25.738 13.6165 25.684C13.227 25.63 12.9213 25.5759 12.6995 25.5219C12.4777 25.4679 12.1476 25.3652 11.7094 25.214C11.2712 25.0627 10.8962 24.9098 10.5846 24.7553C10.2741 24.6018 10.0793 24.5046 10.0003 24.4635C9.9224 24.4235 9.83475 24.3738 9.73736 24.3144L9.59129 24.2252L9.58806 24.2204L9.58317 24.2171L9.5783 24.2139L9.57506 24.209L9.55882 24.2009L9.54259 24.1928L9.53936 24.188L9.53448 24.1847L9.52961 24.1815L9.52636 24.1766L9.52313 24.1718L9.51825 24.1685H9.51013V24.1361L9.52636 24.1393L9.54259 24.1442L9.61563 24.1523C9.66432 24.1577 9.79688 24.1658 10.0133 24.1766C10.2297 24.1874 10.4596 24.1874 10.7031 24.1766C10.9466 24.1658 11.1954 24.1415 11.4497 24.1037C11.704 24.0659 12.0043 24.001 12.3505 23.9092C12.6968 23.8173 13.0149 23.7082 13.3049 23.5818C13.5938 23.4543 13.7994 23.3592 13.9217 23.2965C14.0429 23.2349 14.2279 23.1204 14.4768 22.9529L14.8501 22.7016L14.8533 22.6968L14.8582 22.6935L14.8631 22.6903L14.8663 22.6854L14.8696 22.6806L14.8744 22.6773L14.8793 22.6741L14.8825 22.6692L14.8988 22.6644L14.915 22.6611L14.9182 22.6449L14.9231 22.6287L14.928 22.6255L14.9312 22.6206L14.8014 22.6125C14.7148 22.6071 14.631 22.6017 14.5498 22.5963C14.4687 22.5909 14.3415 22.5666 14.1684 22.5234C13.9953 22.4801 13.8086 22.4153 13.6084 22.3289C13.4082 22.2424 13.2135 22.1398 13.0241 22.0209C12.8348 21.902 12.6979 21.8032 12.6135 21.7243C12.5302 21.6465 12.4219 21.5363 12.2889 21.3936C12.1568 21.2499 12.0421 21.1024 11.9448 20.9511C11.8474 20.7999 11.7543 20.6253 11.6656 20.4276L11.5309 20.1326L11.5228 20.1083L11.5146 20.084L11.5098 20.0678L11.5065 20.0516L11.5309 20.0548L11.5552 20.0597L11.7338 20.084C11.8528 20.1002 12.0394 20.1056 12.2937 20.1002C12.548 20.0948 12.7238 20.084 12.8212 20.0678C12.9186 20.0516 12.9781 20.0408 12.9998 20.0354L13.0322 20.0273L13.0728 20.0192L13.1134 20.0111L13.1166 20.0062L13.1215 20.0029L13.1264 19.9997L13.1296 19.9948L13.0971 19.9867L13.0647 19.9786L13.0322 19.9705L12.9998 19.9624L12.9673 19.9543C12.9457 19.9489 12.9078 19.9381 12.8537 19.9219C12.7996 19.9057 12.6535 19.8463 12.4155 19.7436C12.1774 19.641 11.988 19.541 11.8474 19.4438C11.7064 19.3462 11.5719 19.2396 11.4448 19.1245C11.3182 19.0078 11.1792 18.8575 11.0277 18.6739C10.8762 18.4902 10.741 18.2768 10.6219 18.0336C10.5029 17.7905 10.4137 17.5582 10.3541 17.3367C10.2949 17.1164 10.2557 16.8913 10.2373 16.664L10.2081 16.3236L10.2243 16.3269L10.2405 16.3317L10.2568 16.3398L10.273 16.348L10.2892 16.3561L10.3054 16.3642L10.557 16.4776C10.7248 16.5533 10.933 16.6181 11.1819 16.6721C11.4308 16.7261 11.5796 16.7559 11.6283 16.7613L11.7013 16.7694H11.8474L11.8441 16.7645L11.8393 16.7613L11.8344 16.758L11.8311 16.7532L11.8279 16.7483L11.823 16.7451L11.8182 16.7418L11.8149 16.737L11.7987 16.7288L11.7824 16.7207L11.7792 16.7159L11.7743 16.7126L11.7695 16.7094L11.7662 16.7045L11.75 16.6964L11.7338 16.6883L11.7305 16.6835C11.7273 16.6813 11.6807 16.6467 11.5909 16.5797C11.5022 16.5117 11.4091 16.4236 11.3118 16.3155C11.2144 16.2075 11.117 16.094 11.0196 15.9752C10.922 15.856 10.8351 15.7286 10.7599 15.5943C10.6842 15.4592 10.6041 15.2874 10.5197 15.0788C10.4364 14.8714 10.3731 14.6623 10.3298 14.4516C10.2865 14.2409 10.2622 14.0329 10.2568 13.8275C10.2513 13.6222 10.2568 13.4466 10.273 13.3008C10.2892 13.1549 10.3217 12.9901 10.3704 12.8064C10.4191 12.6227 10.4894 12.4282 10.5814 12.2229L10.7193 11.915L10.7274 11.8906L10.7356 11.8663L10.7404 11.8631L10.7437 11.8582L10.7469 11.8534L10.7518 11.8501L10.7567 11.8534L10.7599 11.8582L10.7632 11.8631L10.768 11.8663L10.7729 11.8696L10.7761 11.8744L10.7794 11.8793L10.7843 11.8825L10.7924 11.8987L10.8005 11.915L10.8054 11.9182L10.8086 11.9231L11.0277 12.1662C11.1738 12.3283 11.3469 12.5093 11.5471 12.7092C11.7473 12.9091 11.8582 13.0128 11.8798 13.0204C11.9015 13.029 11.9285 13.0539 11.961 13.0949C11.9935 13.1349 12.1017 13.2305 12.2856 13.3818C12.4696 13.5331 12.7103 13.7087 13.0079 13.9086C13.3055 14.1085 13.6355 14.3057 13.998 14.5002C14.3605 14.6947 14.75 14.8703 15.1666 15.027C15.5832 15.1837 15.8753 15.2863 16.043 15.3349C16.2108 15.3836 16.4975 15.4457 16.9033 15.5213C17.309 15.597 17.6147 15.6456 17.8203 15.6672C18.0259 15.6888 18.1666 15.7012 18.2423 15.7045L18.3559 15.7077L18.3527 15.6834L18.3478 15.6591L18.3154 15.4565C18.2937 15.3214 18.2829 15.1323 18.2829 14.8892C18.2829 14.6461 18.3018 14.4219 18.3397 14.2165C18.3776 14.0112 18.4344 13.8032 18.5101 13.5925C18.5859 13.3818 18.66 13.2127 18.7325 13.0852C18.8061 12.9588 18.9024 12.8145 19.0214 12.6524C19.1404 12.4904 19.2946 12.3229 19.484 12.15C19.6733 11.9771 19.8898 11.8231 20.1332 11.688C20.3767 11.553 20.6012 11.4503 20.8068 11.3801C21.0124 11.3098 21.1855 11.2639 21.3262 11.2423C21.4669 11.2207 21.5372 11.2083 21.5372 11.205V11.205Z" fill="white"/>
</svg>
