<svg width="37" height="37" viewBox="0 0 37 37" fill="none" xmlns="http://www.w3.org/2000/svg">
<path d="M18.9488 25.4836L14.8866 25.4077C13.5713 25.3812 12.2528 25.434 10.9633 25.1599C9.00178 24.7504 8.86281 22.7425 8.7174 21.0583C8.51704 18.6904 8.59461 16.2796 8.97272 13.9315C9.18617 12.614 10.0262 11.8279 11.3253 11.7423C15.7106 11.4318 20.1251 11.4686 24.5008 11.6135C24.9629 11.6268 25.4282 11.6993 25.8839 11.7819C28.1332 12.1849 28.188 14.4603 28.3338 16.3757C28.4793 18.3109 28.4179 20.2561 28.1399 22.1781C27.917 23.7695 27.4903 25.1041 25.69 25.2329C23.4342 25.4014 21.2302 25.537 18.9681 25.4938C18.9682 25.4836 18.9552 25.4836 18.9488 25.4836ZM16.5606 21.4546C18.2605 20.4572 19.928 19.4764 21.6181 18.4857C19.9151 17.4883 18.2508 16.5075 16.5606 15.5168V21.4546Z" fill="white"/>
</svg>
